%TF.GenerationSoftware,KiCad,Pcbnew,7.0.7*%
%TF.CreationDate,2023-08-26T22:59:00-07:00*%
%TF.ProjectId,CascadeOpAmp,43617363-6164-4654-9f70-416d702e6b69,rev?*%
%TF.SameCoordinates,Original*%
%TF.FileFunction,Copper,L1,Top*%
%TF.FilePolarity,Positive*%
%FSLAX46Y46*%
G04 Gerber Fmt 4.6, Leading zero omitted, Abs format (unit mm)*
G04 Created by KiCad (PCBNEW 7.0.7) date 2023-08-26 22:59:00*
%MOMM*%
%LPD*%
G01*
G04 APERTURE LIST*
G04 Aperture macros list*
%AMRoundRect*
0 Rectangle with rounded corners*
0 $1 Rounding radius*
0 $2 $3 $4 $5 $6 $7 $8 $9 X,Y pos of 4 corners*
0 Add a 4 corners polygon primitive as box body*
4,1,4,$2,$3,$4,$5,$6,$7,$8,$9,$2,$3,0*
0 Add four circle primitives for the rounded corners*
1,1,$1+$1,$2,$3*
1,1,$1+$1,$4,$5*
1,1,$1+$1,$6,$7*
1,1,$1+$1,$8,$9*
0 Add four rect primitives between the rounded corners*
20,1,$1+$1,$2,$3,$4,$5,0*
20,1,$1+$1,$4,$5,$6,$7,0*
20,1,$1+$1,$6,$7,$8,$9,0*
20,1,$1+$1,$8,$9,$2,$3,0*%
G04 Aperture macros list end*
%TA.AperFunction,SMDPad,CuDef*%
%ADD10R,3.100000X1.600000*%
%TD*%
%TA.AperFunction,SMDPad,CuDef*%
%ADD11RoundRect,0.200000X-0.200000X-0.275000X0.200000X-0.275000X0.200000X0.275000X-0.200000X0.275000X0*%
%TD*%
%TA.AperFunction,ComponentPad*%
%ADD12C,2.000000*%
%TD*%
%TA.AperFunction,Conductor*%
%ADD13C,0.250000*%
%TD*%
G04 APERTURE END LIST*
D10*
%TO.P,U1,1*%
%TO.N,Net-(U1B-+)*%
X129895000Y-85940000D03*
%TO.P,U1,2,-*%
%TO.N,Net-(U1A--)*%
X129895000Y-88480000D03*
%TO.P,U1,3,+*%
%TO.N,Net-(U1A-+)*%
X129895000Y-91020000D03*
%TO.P,U1,4*%
%TO.N,N/C*%
X129895000Y-93560000D03*
%TO.P,U1,5,+*%
%TO.N,Net-(U1B-+)*%
X129895000Y-96100000D03*
%TO.P,U1,6,-*%
%TO.N,Net-(U1B--)*%
X129895000Y-98640000D03*
%TO.P,U1,7*%
%TO.N,Net-(R3-Pad2)*%
X129895000Y-101180000D03*
%TO.P,U1,8*%
%TO.N,Net-(Output1-Pad1)*%
X138785000Y-101180000D03*
%TO.P,U1,9,-*%
%TO.N,GND*%
X138785000Y-98640000D03*
%TO.P,U1,10,+*%
%TO.N,Net-(U1C-+)*%
X138785000Y-96100000D03*
%TO.P,U1,11*%
%TO.N,N/C*%
X138785000Y-93560000D03*
%TO.P,U1,12*%
X138785000Y-91020000D03*
%TO.P,U1,13*%
X138785000Y-88480000D03*
%TO.P,U1,14*%
X138785000Y-85940000D03*
%TD*%
D11*
%TO.P,R7,1*%
%TO.N,Net-(U1A--)*%
X147320000Y-109220000D03*
%TO.P,R7,2*%
%TO.N,GND*%
X148970000Y-109220000D03*
%TD*%
%TO.P,R6,1*%
%TO.N,Net-(U1B-+)*%
X137160000Y-109220000D03*
%TO.P,R6,2*%
%TO.N,Net-(U1A--)*%
X138810000Y-109220000D03*
%TD*%
%TO.P,R5,1*%
%TO.N,GND*%
X127000000Y-109220000D03*
%TO.P,R5,2*%
%TO.N,Net-(U1B--)*%
X128650000Y-109220000D03*
%TD*%
%TO.P,R4,1*%
%TO.N,Net-(R3-Pad2)*%
X117730000Y-109220000D03*
%TO.P,R4,2*%
%TO.N,Net-(U1B--)*%
X119380000Y-109220000D03*
%TD*%
%TO.P,R3,1*%
%TO.N,Net-(U1C-+)*%
X145670000Y-76200000D03*
%TO.P,R3,2*%
%TO.N,Net-(R3-Pad2)*%
X147320000Y-76200000D03*
%TD*%
%TO.P,R2,1*%
%TO.N,GND*%
X134620000Y-76200000D03*
%TO.P,R2,2*%
%TO.N,Net-(Output1-Pad1)*%
X136270000Y-76200000D03*
%TD*%
%TO.P,R1,1*%
%TO.N,Net-(U1C-+)*%
X124460000Y-76200000D03*
%TO.P,R1,2*%
%TO.N,Net-(Output1-Pad1)*%
X126110000Y-76200000D03*
%TD*%
D12*
%TO.P,Output2,1,1*%
%TO.N,GND*%
X152400000Y-99060000D03*
%TD*%
%TO.P,Output1,1,1*%
%TO.N,Net-(Output1-Pad1)*%
X152400000Y-88900000D03*
%TD*%
%TO.P,Input2,1,1*%
%TO.N,GND*%
X119380000Y-99060000D03*
%TD*%
%TO.P,Input1,1,1*%
%TO.N,Net-(U1A-+)*%
X119380000Y-88900000D03*
%TD*%
D13*
%TO.N,Net-(U1B-+)*%
X132220600Y-96550300D02*
X131770300Y-96100000D01*
X132220600Y-104280600D02*
X132220600Y-96550300D01*
X137160000Y-109220000D02*
X132220600Y-104280600D01*
X129895000Y-96100000D02*
X131657700Y-96100000D01*
X131657700Y-96100000D02*
X131770300Y-96100000D01*
X128019700Y-89482100D02*
X128019700Y-85940000D01*
X128432200Y-89894600D02*
X128019700Y-89482100D01*
X131579700Y-89894600D02*
X128432200Y-89894600D01*
X131770300Y-90085200D02*
X131579700Y-89894600D01*
X131770300Y-96100000D02*
X131770300Y-90085200D01*
X129895000Y-85940000D02*
X128019700Y-85940000D01*
%TO.N,Net-(U1A--)*%
X129895000Y-88480000D02*
X131770300Y-88480000D01*
X138810000Y-109220000D02*
X147320000Y-109220000D01*
X132970000Y-89679700D02*
X131770300Y-88480000D01*
X132970000Y-103380000D02*
X132970000Y-89679700D01*
X138810000Y-109220000D02*
X132970000Y-103380000D01*
%TO.N,Net-(U1B--)*%
X131770300Y-104493900D02*
X127847100Y-108417100D01*
X131770300Y-98640000D02*
X131770300Y-104493900D01*
X128650000Y-109220000D02*
X127847100Y-108417100D01*
X120182900Y-108417100D02*
X119380000Y-109220000D01*
X127847100Y-108417100D02*
X120182900Y-108417100D01*
X129895000Y-98640000D02*
X131770300Y-98640000D01*
%TO.N,Net-(R3-Pad2)*%
X129895000Y-101180000D02*
X128019700Y-101180000D01*
X117730000Y-109220000D02*
X126894900Y-100055100D01*
X118049600Y-91209900D02*
X126894900Y-100055100D01*
X118049600Y-81390500D02*
X118049600Y-91209900D01*
X124950900Y-74489200D02*
X118049600Y-81390500D01*
X145609200Y-74489200D02*
X124950900Y-74489200D01*
X147320000Y-76200000D02*
X145609200Y-74489200D01*
X126894900Y-100055100D02*
X128019700Y-101180000D01*
%TO.N,Net-(U1C-+)*%
X145670000Y-91090300D02*
X145670000Y-76200000D01*
X140660300Y-96100000D02*
X145670000Y-91090300D01*
X138785000Y-96100000D02*
X140660300Y-96100000D01*
X144409600Y-74939600D02*
X145670000Y-76200000D01*
X125720400Y-74939600D02*
X144409600Y-74939600D01*
X124460000Y-76200000D02*
X125720400Y-74939600D01*
%TO.N,Net-(Output1-Pad1)*%
X138785000Y-101180000D02*
X140660300Y-101180000D01*
X135461300Y-75391300D02*
X136270000Y-76200000D01*
X126918700Y-75391300D02*
X135461300Y-75391300D01*
X126110000Y-76200000D02*
X126918700Y-75391300D01*
X140660300Y-97370000D02*
X140660300Y-101180000D01*
X143930000Y-97370000D02*
X140660300Y-97370000D01*
X152400000Y-88900000D02*
X143930000Y-97370000D01*
X136270000Y-96401300D02*
X136270000Y-76200000D01*
X137238700Y-97370000D02*
X136270000Y-96401300D01*
X140660300Y-97370000D02*
X137238700Y-97370000D01*
%TO.N,GND*%
X138785000Y-98640000D02*
X136909700Y-98640000D01*
X134620000Y-96350300D02*
X136909700Y-98640000D01*
X134620000Y-76200000D02*
X134620000Y-96350300D01*
X136909700Y-102184700D02*
X136909700Y-98640000D01*
X137215000Y-102490000D02*
X136909700Y-102184700D01*
X148970000Y-102490000D02*
X137215000Y-102490000D01*
X152400000Y-99060000D02*
X148970000Y-102490000D01*
X148970000Y-102490000D02*
X148970000Y-109220000D01*
X148158300Y-110031700D02*
X148970000Y-109220000D01*
X127811700Y-110031700D02*
X148158300Y-110031700D01*
X127000000Y-109220000D02*
X127811700Y-110031700D01*
X126195000Y-110025000D02*
X127000000Y-109220000D01*
X117300000Y-110025000D02*
X126195000Y-110025000D01*
X117002900Y-109727900D02*
X117300000Y-110025000D01*
X117002900Y-101437100D02*
X117002900Y-109727900D01*
X119380000Y-99060000D02*
X117002900Y-101437100D01*
%TO.N,Net-(U1A-+)*%
X121500000Y-91020000D02*
X129895000Y-91020000D01*
X119380000Y-88900000D02*
X121500000Y-91020000D01*
%TD*%
%TA.AperFunction,Conductor*%
%TO.N,Net-(Output1-Pad1)*%
G36*
X133696945Y-75584785D02*
G01*
X133742700Y-75637589D01*
X133752644Y-75706747D01*
X133748292Y-75725989D01*
X133725914Y-75797805D01*
X133719500Y-75868386D01*
X133719500Y-76531613D01*
X133725913Y-76602192D01*
X133725913Y-76602194D01*
X133725914Y-76602196D01*
X133776522Y-76764606D01*
X133864528Y-76910185D01*
X133958182Y-77003839D01*
X133991666Y-77065160D01*
X133994500Y-77091519D01*
X133994499Y-96267555D01*
X133992776Y-96283172D01*
X133993061Y-96283199D01*
X133992326Y-96290965D01*
X133994500Y-96360114D01*
X133994500Y-96389643D01*
X133994501Y-96389660D01*
X133995368Y-96396531D01*
X133995826Y-96402350D01*
X133997290Y-96448924D01*
X133997291Y-96448927D01*
X134002880Y-96468167D01*
X134006824Y-96487211D01*
X134009336Y-96507092D01*
X134015907Y-96523689D01*
X134026490Y-96550419D01*
X134028382Y-96555947D01*
X134041381Y-96600688D01*
X134051580Y-96617934D01*
X134060138Y-96635403D01*
X134067514Y-96654032D01*
X134094898Y-96691723D01*
X134098106Y-96696607D01*
X134121827Y-96736716D01*
X134121833Y-96736724D01*
X134135990Y-96750880D01*
X134148628Y-96765676D01*
X134160405Y-96781886D01*
X134160406Y-96781887D01*
X134196309Y-96811588D01*
X134200620Y-96815510D01*
X135337371Y-97952261D01*
X136247881Y-98862771D01*
X136281366Y-98924094D01*
X136284200Y-98950452D01*
X136284200Y-102101955D01*
X136282475Y-102117572D01*
X136282761Y-102117599D01*
X136282026Y-102125365D01*
X136284200Y-102194514D01*
X136284200Y-102224043D01*
X136284201Y-102224060D01*
X136285068Y-102230931D01*
X136285526Y-102236750D01*
X136286990Y-102283324D01*
X136286991Y-102283327D01*
X136292580Y-102302567D01*
X136296524Y-102321611D01*
X136298537Y-102337544D01*
X136299036Y-102341491D01*
X136316190Y-102384819D01*
X136318082Y-102390347D01*
X136331081Y-102435088D01*
X136341280Y-102452334D01*
X136349836Y-102469800D01*
X136354073Y-102480499D01*
X136357214Y-102488432D01*
X136384598Y-102526123D01*
X136387806Y-102531007D01*
X136411527Y-102571116D01*
X136411533Y-102571124D01*
X136425690Y-102585280D01*
X136438328Y-102600076D01*
X136450105Y-102616286D01*
X136450106Y-102616287D01*
X136486008Y-102645987D01*
X136490319Y-102649909D01*
X136705438Y-102865029D01*
X136714198Y-102873789D01*
X136724022Y-102886050D01*
X136724243Y-102885868D01*
X136729213Y-102891876D01*
X136779637Y-102939228D01*
X136800523Y-102960115D01*
X136800527Y-102960118D01*
X136800529Y-102960120D01*
X136806011Y-102964373D01*
X136810443Y-102968157D01*
X136844418Y-103000062D01*
X136861976Y-103009714D01*
X136878235Y-103020395D01*
X136894064Y-103032673D01*
X136936838Y-103051182D01*
X136942056Y-103053738D01*
X136982908Y-103076197D01*
X137002316Y-103081180D01*
X137020717Y-103087480D01*
X137039104Y-103095437D01*
X137082488Y-103102308D01*
X137085119Y-103102725D01*
X137090839Y-103103909D01*
X137135981Y-103115500D01*
X137156016Y-103115500D01*
X137175414Y-103117026D01*
X137195194Y-103120159D01*
X137195195Y-103120160D01*
X137195195Y-103120159D01*
X137195196Y-103120160D01*
X137241583Y-103115775D01*
X137247422Y-103115500D01*
X148220500Y-103115500D01*
X148287539Y-103135185D01*
X148333294Y-103187989D01*
X148344500Y-103239500D01*
X148344500Y-108328480D01*
X148324815Y-108395519D01*
X148308181Y-108416161D01*
X148232681Y-108491661D01*
X148171358Y-108525146D01*
X148101666Y-108520162D01*
X148057319Y-108491661D01*
X147955188Y-108389530D01*
X147945499Y-108383673D01*
X147809606Y-108301522D01*
X147647196Y-108250914D01*
X147647194Y-108250913D01*
X147647192Y-108250913D01*
X147597778Y-108246423D01*
X147576616Y-108244500D01*
X147063384Y-108244500D01*
X147044145Y-108246248D01*
X146992807Y-108250913D01*
X146830393Y-108301522D01*
X146684811Y-108389530D01*
X146564531Y-108509810D01*
X146564528Y-108509814D01*
X146549514Y-108534651D01*
X146497986Y-108581838D01*
X146443398Y-108594500D01*
X139686602Y-108594500D01*
X139619563Y-108574815D01*
X139580486Y-108534651D01*
X139565471Y-108509814D01*
X139565468Y-108509810D01*
X139445188Y-108389530D01*
X139435499Y-108383673D01*
X139299606Y-108301522D01*
X139137196Y-108250914D01*
X139137194Y-108250913D01*
X139137192Y-108250913D01*
X139087778Y-108246423D01*
X139066616Y-108244500D01*
X139066613Y-108244500D01*
X138770453Y-108244500D01*
X138703414Y-108224815D01*
X138682772Y-108208181D01*
X133631819Y-103157228D01*
X133598334Y-103095905D01*
X133595500Y-103069547D01*
X133595500Y-96448924D01*
X133595500Y-89762432D01*
X133597225Y-89746823D01*
X133596939Y-89746796D01*
X133597671Y-89739040D01*
X133597673Y-89739033D01*
X133595500Y-89669885D01*
X133595500Y-89640350D01*
X133594631Y-89633472D01*
X133594172Y-89627643D01*
X133592709Y-89581072D01*
X133587122Y-89561844D01*
X133583174Y-89542784D01*
X133580663Y-89522904D01*
X133563512Y-89479587D01*
X133561619Y-89474058D01*
X133548618Y-89429309D01*
X133548616Y-89429306D01*
X133538423Y-89412071D01*
X133529861Y-89394594D01*
X133522487Y-89375970D01*
X133520692Y-89373499D01*
X133495079Y-89338245D01*
X133491888Y-89333386D01*
X133491182Y-89332193D01*
X133468170Y-89293280D01*
X133468168Y-89293278D01*
X133468165Y-89293274D01*
X133454006Y-89279115D01*
X133441368Y-89264319D01*
X133429594Y-89248113D01*
X133408662Y-89230797D01*
X133393688Y-89218409D01*
X133389376Y-89214486D01*
X132271103Y-88096212D01*
X132261280Y-88083950D01*
X132261059Y-88084134D01*
X132256086Y-88078123D01*
X132256085Y-88078122D01*
X132205664Y-88030773D01*
X132195219Y-88020328D01*
X132184775Y-88009883D01*
X132179286Y-88005625D01*
X132174861Y-88001847D01*
X132140882Y-87969938D01*
X132140880Y-87969936D01*
X132140877Y-87969935D01*
X132123329Y-87960288D01*
X132107063Y-87949604D01*
X132091233Y-87937325D01*
X132048468Y-87918818D01*
X132043222Y-87916248D01*
X132009764Y-87897855D01*
X131960499Y-87848310D01*
X131945499Y-87789192D01*
X131945499Y-87632129D01*
X131945498Y-87632123D01*
X131945497Y-87632116D01*
X131939091Y-87572517D01*
X131920113Y-87521635D01*
X131888797Y-87437671D01*
X131888793Y-87437664D01*
X131802547Y-87322455D01*
X131802546Y-87322454D01*
X131784930Y-87309267D01*
X131743058Y-87253334D01*
X131738074Y-87183642D01*
X131771558Y-87122319D01*
X131784930Y-87110733D01*
X131802546Y-87097546D01*
X131888796Y-86982331D01*
X131939091Y-86847483D01*
X131945500Y-86787873D01*
X131945499Y-85092128D01*
X131939091Y-85032517D01*
X131888796Y-84897669D01*
X131888795Y-84897668D01*
X131888793Y-84897664D01*
X131802547Y-84782455D01*
X131802544Y-84782452D01*
X131687335Y-84696206D01*
X131687328Y-84696202D01*
X131552482Y-84645908D01*
X131552483Y-84645908D01*
X131492883Y-84639501D01*
X131492881Y-84639500D01*
X131492873Y-84639500D01*
X131492864Y-84639500D01*
X128297129Y-84639500D01*
X128297123Y-84639501D01*
X128237516Y-84645908D01*
X128102671Y-84696202D01*
X128102664Y-84696206D01*
X127987455Y-84782452D01*
X127987452Y-84782455D01*
X127901206Y-84897664D01*
X127901202Y-84897671D01*
X127850908Y-85032517D01*
X127844501Y-85092116D01*
X127844501Y-85092123D01*
X127844500Y-85092135D01*
X127844500Y-85249145D01*
X127824815Y-85316184D01*
X127772011Y-85361939D01*
X127758825Y-85367074D01*
X127751258Y-85369533D01*
X127744352Y-85373915D01*
X127723580Y-85384499D01*
X127715973Y-85387511D01*
X127715962Y-85387517D01*
X127669514Y-85421263D01*
X127666295Y-85423451D01*
X127617823Y-85454213D01*
X127617820Y-85454216D01*
X127612229Y-85460170D01*
X127594729Y-85475599D01*
X127588113Y-85480405D01*
X127588112Y-85480406D01*
X127551512Y-85524646D01*
X127548938Y-85527565D01*
X127509637Y-85569417D01*
X127509635Y-85569420D01*
X127505694Y-85576589D01*
X127492589Y-85595873D01*
X127487377Y-85602173D01*
X127487374Y-85602178D01*
X127462931Y-85654121D01*
X127461164Y-85657589D01*
X127433504Y-85707903D01*
X127433503Y-85707908D01*
X127431469Y-85715828D01*
X127423570Y-85737768D01*
X127420086Y-85745172D01*
X127420084Y-85745178D01*
X127409329Y-85801561D01*
X127408479Y-85805361D01*
X127394200Y-85860976D01*
X127394200Y-85869152D01*
X127392005Y-85892379D01*
X127390473Y-85900412D01*
X127394078Y-85957724D01*
X127394200Y-85961595D01*
X127394200Y-89399354D01*
X127392475Y-89414972D01*
X127392761Y-89414999D01*
X127392026Y-89422766D01*
X127394199Y-89491914D01*
X127394199Y-89521451D01*
X127395068Y-89528332D01*
X127395526Y-89534151D01*
X127396990Y-89580724D01*
X127397805Y-89583531D01*
X127402580Y-89599967D01*
X127406524Y-89619011D01*
X127409036Y-89638892D01*
X127418311Y-89662319D01*
X127426190Y-89682219D01*
X127428082Y-89687747D01*
X127433579Y-89706668D01*
X127441082Y-89732490D01*
X127449542Y-89746796D01*
X127451280Y-89749734D01*
X127459836Y-89767200D01*
X127467214Y-89785832D01*
X127494598Y-89823523D01*
X127497806Y-89828407D01*
X127521527Y-89868516D01*
X127521533Y-89868524D01*
X127535690Y-89882680D01*
X127548328Y-89897476D01*
X127560105Y-89913686D01*
X127560106Y-89913687D01*
X127596009Y-89943388D01*
X127600320Y-89947310D01*
X127765526Y-90112516D01*
X127808181Y-90155171D01*
X127841666Y-90216494D01*
X127844500Y-90242852D01*
X127844500Y-90270500D01*
X127824815Y-90337539D01*
X127772011Y-90383294D01*
X127720500Y-90394500D01*
X121810452Y-90394500D01*
X121743413Y-90374815D01*
X121722771Y-90358181D01*
X120843660Y-89479070D01*
X120810175Y-89417747D01*
X120811135Y-89360950D01*
X120865108Y-89147821D01*
X120865116Y-89147729D01*
X120885643Y-88900005D01*
X120885643Y-88899994D01*
X120865109Y-88652187D01*
X120865107Y-88652175D01*
X120804063Y-88411118D01*
X120704173Y-88183393D01*
X120568166Y-87975217D01*
X120475404Y-87874451D01*
X120399744Y-87792262D01*
X120203509Y-87639526D01*
X120203507Y-87639525D01*
X120203506Y-87639524D01*
X119984811Y-87521172D01*
X119984802Y-87521169D01*
X119749616Y-87440429D01*
X119504335Y-87399500D01*
X119255665Y-87399500D01*
X119010386Y-87440428D01*
X118839361Y-87499141D01*
X118769562Y-87502290D01*
X118709141Y-87467203D01*
X118677281Y-87405020D01*
X118675100Y-87381869D01*
X118675100Y-81700950D01*
X118694785Y-81633912D01*
X118711414Y-81613275D01*
X123483343Y-76841345D01*
X123544664Y-76807862D01*
X123614356Y-76812846D01*
X123670289Y-76854718D01*
X123677138Y-76864877D01*
X123704528Y-76910185D01*
X123704531Y-76910189D01*
X123824811Y-77030469D01*
X123824813Y-77030470D01*
X123824815Y-77030472D01*
X123970394Y-77118478D01*
X124132804Y-77169086D01*
X124203384Y-77175500D01*
X124203387Y-77175500D01*
X124716613Y-77175500D01*
X124716616Y-77175500D01*
X124787196Y-77169086D01*
X124949606Y-77118478D01*
X125095185Y-77030472D01*
X125197673Y-76927983D01*
X125258994Y-76894499D01*
X125328685Y-76899483D01*
X125373034Y-76927984D01*
X125475122Y-77030072D01*
X125620604Y-77118019D01*
X125620603Y-77118019D01*
X125782894Y-77168590D01*
X125782893Y-77168590D01*
X125853408Y-77174998D01*
X125853426Y-77174999D01*
X125859998Y-77174998D01*
X125859999Y-77174998D01*
X125860000Y-76450000D01*
X126359999Y-76450000D01*
X126359999Y-77174998D01*
X126360000Y-77174999D01*
X126366581Y-77174999D01*
X126437102Y-77168591D01*
X126437107Y-77168590D01*
X126599396Y-77118018D01*
X126744877Y-77030072D01*
X126865072Y-76909877D01*
X126953019Y-76764395D01*
X127003590Y-76602106D01*
X127010000Y-76531572D01*
X127010000Y-76450000D01*
X126359999Y-76450000D01*
X125860000Y-76450000D01*
X125860000Y-76074000D01*
X125879685Y-76006960D01*
X125932489Y-75961206D01*
X125984000Y-75950000D01*
X127009999Y-75950000D01*
X127009998Y-75868417D01*
X127003591Y-75797897D01*
X127003590Y-75797892D01*
X126981185Y-75725991D01*
X126980033Y-75656131D01*
X127016834Y-75596738D01*
X127079902Y-75566670D01*
X127099570Y-75565100D01*
X133629906Y-75565100D01*
X133696945Y-75584785D01*
G37*
%TD.AperFunction*%
%TA.AperFunction,Conductor*%
G36*
X144166187Y-75584785D02*
G01*
X144186829Y-75601419D01*
X144733181Y-76147771D01*
X144766666Y-76209094D01*
X144769500Y-76235452D01*
X144769500Y-76531613D01*
X144775913Y-76602192D01*
X144775913Y-76602194D01*
X144775914Y-76602196D01*
X144826522Y-76764606D01*
X144914528Y-76910185D01*
X145008182Y-77003839D01*
X145041666Y-77065160D01*
X145044500Y-77091519D01*
X145044500Y-90779846D01*
X145024815Y-90846885D01*
X145008181Y-90867527D01*
X140896785Y-94978922D01*
X140835462Y-95012407D01*
X140765770Y-95007423D01*
X140709838Y-94965553D01*
X140705728Y-94960062D01*
X140692546Y-94942454D01*
X140674929Y-94929266D01*
X140633058Y-94873334D01*
X140628074Y-94803642D01*
X140661558Y-94742319D01*
X140674930Y-94730733D01*
X140692546Y-94717546D01*
X140778796Y-94602331D01*
X140829091Y-94467483D01*
X140835500Y-94407873D01*
X140835499Y-92712128D01*
X140829091Y-92652517D01*
X140778796Y-92517669D01*
X140778795Y-92517668D01*
X140778793Y-92517664D01*
X140692547Y-92402455D01*
X140692546Y-92402454D01*
X140674930Y-92389267D01*
X140633058Y-92333334D01*
X140628074Y-92263642D01*
X140661558Y-92202319D01*
X140674930Y-92190733D01*
X140692546Y-92177546D01*
X140778796Y-92062331D01*
X140829091Y-91927483D01*
X140835500Y-91867873D01*
X140835499Y-90172128D01*
X140829091Y-90112517D01*
X140778796Y-89977669D01*
X140778795Y-89977668D01*
X140778793Y-89977664D01*
X140692547Y-89862455D01*
X140692546Y-89862454D01*
X140674930Y-89849267D01*
X140633058Y-89793334D01*
X140628074Y-89723642D01*
X140661558Y-89662319D01*
X140674930Y-89650733D01*
X140692546Y-89637546D01*
X140778796Y-89522331D01*
X140829091Y-89387483D01*
X140835500Y-89327873D01*
X140835499Y-87632128D01*
X140829091Y-87572517D01*
X140810113Y-87521635D01*
X140778797Y-87437671D01*
X140778793Y-87437664D01*
X140692547Y-87322455D01*
X140692546Y-87322454D01*
X140674930Y-87309267D01*
X140633058Y-87253334D01*
X140628074Y-87183642D01*
X140661558Y-87122319D01*
X140674930Y-87110733D01*
X140692546Y-87097546D01*
X140778796Y-86982331D01*
X140829091Y-86847483D01*
X140835500Y-86787873D01*
X140835499Y-85092128D01*
X140829091Y-85032517D01*
X140778796Y-84897669D01*
X140778795Y-84897668D01*
X140778793Y-84897664D01*
X140692547Y-84782455D01*
X140692544Y-84782452D01*
X140577335Y-84696206D01*
X140577328Y-84696202D01*
X140442482Y-84645908D01*
X140442483Y-84645908D01*
X140382883Y-84639501D01*
X140382881Y-84639500D01*
X140382873Y-84639500D01*
X140382864Y-84639500D01*
X137187129Y-84639500D01*
X137187123Y-84639501D01*
X137127516Y-84645908D01*
X136992671Y-84696202D01*
X136992664Y-84696206D01*
X136877455Y-84782452D01*
X136877452Y-84782455D01*
X136791206Y-84897664D01*
X136791202Y-84897671D01*
X136740908Y-85032517D01*
X136734501Y-85092116D01*
X136734501Y-85092123D01*
X136734500Y-85092135D01*
X136734500Y-86787870D01*
X136734501Y-86787876D01*
X136740908Y-86847483D01*
X136791202Y-86982328D01*
X136791206Y-86982335D01*
X136877452Y-87097544D01*
X136877453Y-87097544D01*
X136877454Y-87097546D01*
X136895070Y-87110733D01*
X136895071Y-87110734D01*
X136936941Y-87166668D01*
X136941925Y-87236360D01*
X136908439Y-87297683D01*
X136895071Y-87309266D01*
X136877452Y-87322455D01*
X136791206Y-87437664D01*
X136791202Y-87437671D01*
X136740908Y-87572517D01*
X136734501Y-87632116D01*
X136734501Y-87632123D01*
X136734500Y-87632135D01*
X136734500Y-89327870D01*
X136734501Y-89327876D01*
X136740908Y-89387483D01*
X136791202Y-89522328D01*
X136791206Y-89522335D01*
X136877452Y-89637544D01*
X136877453Y-89637544D01*
X136877454Y-89637546D01*
X136895070Y-89650733D01*
X136895071Y-89650734D01*
X136936941Y-89706668D01*
X136941925Y-89776360D01*
X136908439Y-89837683D01*
X136895071Y-89849266D01*
X136877452Y-89862455D01*
X136791206Y-89977664D01*
X136791202Y-89977671D01*
X136740908Y-90112517D01*
X136734501Y-90172116D01*
X136734501Y-90172123D01*
X136734500Y-90172135D01*
X136734500Y-91867870D01*
X136734501Y-91867876D01*
X136740908Y-91927483D01*
X136791202Y-92062328D01*
X136791206Y-92062335D01*
X136877452Y-92177544D01*
X136877453Y-92177544D01*
X136877454Y-92177546D01*
X136895070Y-92190733D01*
X136895071Y-92190734D01*
X136936941Y-92246668D01*
X136941925Y-92316360D01*
X136908439Y-92377683D01*
X136895071Y-92389266D01*
X136877452Y-92402455D01*
X136791206Y-92517664D01*
X136791202Y-92517671D01*
X136740908Y-92652517D01*
X136734501Y-92712116D01*
X136734501Y-92712123D01*
X136734500Y-92712135D01*
X136734500Y-94407870D01*
X136734501Y-94407876D01*
X136740908Y-94467483D01*
X136791202Y-94602328D01*
X136791206Y-94602335D01*
X136877452Y-94717544D01*
X136877453Y-94717544D01*
X136877454Y-94717546D01*
X136895070Y-94730733D01*
X136895071Y-94730734D01*
X136936941Y-94786668D01*
X136941925Y-94856360D01*
X136908439Y-94917683D01*
X136895071Y-94929266D01*
X136877452Y-94942455D01*
X136791206Y-95057664D01*
X136791202Y-95057671D01*
X136740908Y-95192517D01*
X136734501Y-95252116D01*
X136734500Y-95252135D01*
X136734500Y-96947870D01*
X136734501Y-96947876D01*
X136740908Y-97007483D01*
X136791202Y-97142328D01*
X136791206Y-97142335D01*
X136877452Y-97257544D01*
X136877453Y-97257544D01*
X136877454Y-97257546D01*
X136895070Y-97270733D01*
X136895071Y-97270734D01*
X136936941Y-97326668D01*
X136941925Y-97396360D01*
X136908439Y-97457683D01*
X136895071Y-97469266D01*
X136877454Y-97482454D01*
X136860158Y-97505557D01*
X136804222Y-97547426D01*
X136734531Y-97552407D01*
X136673213Y-97518923D01*
X135281819Y-96127528D01*
X135248334Y-96066205D01*
X135245500Y-96039847D01*
X135245500Y-77091519D01*
X135265185Y-77024480D01*
X135281813Y-77003843D01*
X135357675Y-76927981D01*
X135418994Y-76894499D01*
X135488686Y-76899483D01*
X135533034Y-76927984D01*
X135635122Y-77030072D01*
X135780604Y-77118019D01*
X135780603Y-77118019D01*
X135942894Y-77168590D01*
X135942893Y-77168590D01*
X136013408Y-77174998D01*
X136013426Y-77174999D01*
X136019999Y-77174998D01*
X136020000Y-77174998D01*
X136020000Y-76450000D01*
X136520000Y-76450000D01*
X136520000Y-77174999D01*
X136526581Y-77174999D01*
X136597102Y-77168591D01*
X136597107Y-77168590D01*
X136759396Y-77118018D01*
X136904877Y-77030072D01*
X137025072Y-76909877D01*
X137113019Y-76764395D01*
X137163590Y-76602106D01*
X137170000Y-76531572D01*
X137170000Y-76450000D01*
X136520000Y-76450000D01*
X136020000Y-76450000D01*
X136020000Y-76074000D01*
X136039685Y-76006961D01*
X136092489Y-75961206D01*
X136144000Y-75950000D01*
X137169999Y-75950000D01*
X137169999Y-75868417D01*
X137163591Y-75797897D01*
X137163590Y-75797892D01*
X137141185Y-75725991D01*
X137140033Y-75656131D01*
X137176834Y-75596738D01*
X137239902Y-75566670D01*
X137259570Y-75565100D01*
X144099148Y-75565100D01*
X144166187Y-75584785D01*
G37*
%TD.AperFunction*%
%TA.AperFunction,Conductor*%
G36*
X162502539Y-68600185D02*
G01*
X162548294Y-68652989D01*
X162559500Y-68704500D01*
X162559500Y-119255500D01*
X162539815Y-119322539D01*
X162487011Y-119368294D01*
X162435500Y-119379500D01*
X109344500Y-119379500D01*
X109277461Y-119359815D01*
X109231706Y-119307011D01*
X109220500Y-119255500D01*
X109220500Y-101417295D01*
X116372740Y-101417295D01*
X116377125Y-101463683D01*
X116377400Y-101469521D01*
X116377400Y-109645155D01*
X116375675Y-109660772D01*
X116375961Y-109660799D01*
X116375226Y-109668565D01*
X116377400Y-109737714D01*
X116377400Y-109767243D01*
X116377401Y-109767260D01*
X116378268Y-109774131D01*
X116378726Y-109779950D01*
X116380190Y-109826524D01*
X116380191Y-109826527D01*
X116385780Y-109845767D01*
X116389724Y-109864811D01*
X116392236Y-109884691D01*
X116409390Y-109928019D01*
X116411282Y-109933547D01*
X116424281Y-109978288D01*
X116434480Y-109995534D01*
X116443038Y-110013003D01*
X116450414Y-110031632D01*
X116477798Y-110069323D01*
X116481006Y-110074207D01*
X116504727Y-110114316D01*
X116504733Y-110114324D01*
X116518890Y-110128480D01*
X116531528Y-110143276D01*
X116543305Y-110159486D01*
X116543306Y-110159487D01*
X116579208Y-110189187D01*
X116583519Y-110193109D01*
X116790469Y-110400060D01*
X116799198Y-110408789D01*
X116809022Y-110421050D01*
X116809243Y-110420868D01*
X116814213Y-110426876D01*
X116864637Y-110474228D01*
X116885523Y-110495115D01*
X116885527Y-110495118D01*
X116885529Y-110495120D01*
X116891011Y-110499373D01*
X116895443Y-110503157D01*
X116929418Y-110535062D01*
X116946976Y-110544714D01*
X116963233Y-110555393D01*
X116979064Y-110567673D01*
X116994547Y-110574373D01*
X117021833Y-110586182D01*
X117027077Y-110588750D01*
X117067908Y-110611197D01*
X117080523Y-110614435D01*
X117087305Y-110616177D01*
X117105719Y-110622481D01*
X117124104Y-110630438D01*
X117170157Y-110637732D01*
X117175826Y-110638906D01*
X117220981Y-110650500D01*
X117241016Y-110650500D01*
X117260413Y-110652026D01*
X117280196Y-110655160D01*
X117326583Y-110650775D01*
X117332422Y-110650500D01*
X126112257Y-110650500D01*
X126127877Y-110652224D01*
X126127904Y-110651939D01*
X126135660Y-110652671D01*
X126135667Y-110652673D01*
X126204814Y-110650500D01*
X126234350Y-110650500D01*
X126241228Y-110649630D01*
X126247041Y-110649172D01*
X126293627Y-110647709D01*
X126312869Y-110642117D01*
X126331912Y-110638174D01*
X126351792Y-110635664D01*
X126395122Y-110618507D01*
X126400646Y-110616617D01*
X126404396Y-110615527D01*
X126445390Y-110603618D01*
X126462629Y-110593422D01*
X126480103Y-110584862D01*
X126498727Y-110577488D01*
X126498727Y-110577487D01*
X126498732Y-110577486D01*
X126536449Y-110550082D01*
X126541305Y-110546892D01*
X126581420Y-110523170D01*
X126595589Y-110508999D01*
X126610379Y-110496368D01*
X126626587Y-110484594D01*
X126656299Y-110448676D01*
X126660212Y-110444376D01*
X126872772Y-110231816D01*
X126934094Y-110198334D01*
X126960452Y-110195500D01*
X127039547Y-110195500D01*
X127106586Y-110215185D01*
X127127228Y-110231819D01*
X127310897Y-110415488D01*
X127320722Y-110427751D01*
X127320943Y-110427569D01*
X127325914Y-110433578D01*
X127346743Y-110453137D01*
X127376335Y-110480926D01*
X127397229Y-110501820D01*
X127402711Y-110506073D01*
X127407143Y-110509857D01*
X127441118Y-110541762D01*
X127458676Y-110551414D01*
X127474935Y-110562095D01*
X127490764Y-110574373D01*
X127533538Y-110592882D01*
X127538756Y-110595438D01*
X127579608Y-110617897D01*
X127599016Y-110622880D01*
X127617417Y-110629180D01*
X127635804Y-110637137D01*
X127679188Y-110644008D01*
X127681819Y-110644425D01*
X127687539Y-110645609D01*
X127732681Y-110657200D01*
X127752716Y-110657200D01*
X127772114Y-110658726D01*
X127791894Y-110661859D01*
X127791895Y-110661860D01*
X127791895Y-110661859D01*
X127791896Y-110661860D01*
X127838283Y-110657475D01*
X127844122Y-110657200D01*
X148075557Y-110657200D01*
X148091177Y-110658924D01*
X148091204Y-110658639D01*
X148098960Y-110659371D01*
X148098967Y-110659373D01*
X148168114Y-110657200D01*
X148197650Y-110657200D01*
X148204528Y-110656330D01*
X148210341Y-110655872D01*
X148256927Y-110654409D01*
X148276169Y-110648817D01*
X148295212Y-110644874D01*
X148315092Y-110642364D01*
X148358422Y-110625207D01*
X148363946Y-110623317D01*
X148367696Y-110622227D01*
X148408690Y-110610318D01*
X148425929Y-110600122D01*
X148443403Y-110591562D01*
X148462027Y-110584188D01*
X148462027Y-110584187D01*
X148462032Y-110584186D01*
X148499749Y-110556782D01*
X148504605Y-110553592D01*
X148544720Y-110529870D01*
X148558889Y-110515699D01*
X148573679Y-110503068D01*
X148589887Y-110491294D01*
X148619599Y-110455376D01*
X148623512Y-110451076D01*
X148842772Y-110231816D01*
X148904094Y-110198334D01*
X148930452Y-110195500D01*
X149226613Y-110195500D01*
X149226616Y-110195500D01*
X149297196Y-110189086D01*
X149459606Y-110138478D01*
X149605185Y-110050472D01*
X149725472Y-109930185D01*
X149813478Y-109784606D01*
X149864086Y-109622196D01*
X149870500Y-109551616D01*
X149870500Y-108888384D01*
X149864086Y-108817804D01*
X149813478Y-108655394D01*
X149725472Y-108509815D01*
X149725470Y-108509813D01*
X149725469Y-108509811D01*
X149631819Y-108416161D01*
X149598334Y-108354838D01*
X149595500Y-108328480D01*
X149595500Y-102800451D01*
X149615185Y-102733412D01*
X149631814Y-102712775D01*
X151822771Y-100521817D01*
X151884092Y-100488334D01*
X151950712Y-100492218D01*
X151996493Y-100507935D01*
X152030385Y-100519571D01*
X152275665Y-100560500D01*
X152524335Y-100560500D01*
X152769614Y-100519571D01*
X153004810Y-100438828D01*
X153223509Y-100320474D01*
X153419744Y-100167738D01*
X153588164Y-99984785D01*
X153724173Y-99776607D01*
X153824063Y-99548881D01*
X153885108Y-99307821D01*
X153905643Y-99060000D01*
X153889300Y-98862771D01*
X153885109Y-98812187D01*
X153885107Y-98812175D01*
X153824063Y-98571118D01*
X153724173Y-98343393D01*
X153588166Y-98135217D01*
X153566557Y-98111744D01*
X153419744Y-97952262D01*
X153223509Y-97799526D01*
X153223507Y-97799525D01*
X153223506Y-97799524D01*
X153004811Y-97681172D01*
X153004802Y-97681169D01*
X152769616Y-97600429D01*
X152524335Y-97559500D01*
X152275665Y-97559500D01*
X152030383Y-97600429D01*
X151795197Y-97681169D01*
X151795188Y-97681172D01*
X151576493Y-97799524D01*
X151380257Y-97952261D01*
X151211833Y-98135217D01*
X151075826Y-98343393D01*
X150975936Y-98571118D01*
X150914892Y-98812175D01*
X150914890Y-98812187D01*
X150894357Y-99059994D01*
X150894357Y-99060005D01*
X150914890Y-99307812D01*
X150914892Y-99307824D01*
X150968863Y-99520948D01*
X150966238Y-99590768D01*
X150936338Y-99639069D01*
X148747228Y-101828181D01*
X148685905Y-101861666D01*
X148659547Y-101864500D01*
X140959000Y-101864500D01*
X140891961Y-101844815D01*
X140846206Y-101792011D01*
X140835000Y-101740500D01*
X140835000Y-101430000D01*
X138659000Y-101430000D01*
X138591961Y-101410315D01*
X138546206Y-101357511D01*
X138535000Y-101306000D01*
X138535000Y-101054000D01*
X138554685Y-100986961D01*
X138607489Y-100941206D01*
X138659000Y-100930000D01*
X140835000Y-100930000D01*
X140835000Y-100332172D01*
X140834999Y-100332155D01*
X140828598Y-100272627D01*
X140828596Y-100272620D01*
X140778354Y-100137913D01*
X140778350Y-100137906D01*
X140692190Y-100022812D01*
X140692189Y-100022811D01*
X140674513Y-100009579D01*
X140632641Y-99953646D01*
X140627657Y-99883954D01*
X140661142Y-99822631D01*
X140674500Y-99811055D01*
X140692546Y-99797546D01*
X140778796Y-99682331D01*
X140829091Y-99547483D01*
X140835500Y-99487873D01*
X140835499Y-97792128D01*
X140829091Y-97732517D01*
X140809939Y-97681169D01*
X140778797Y-97597671D01*
X140778793Y-97597664D01*
X140692547Y-97482455D01*
X140692546Y-97482454D01*
X140674930Y-97469267D01*
X140633058Y-97413334D01*
X140628074Y-97343642D01*
X140661558Y-97282319D01*
X140674930Y-97270733D01*
X140692546Y-97257546D01*
X140778796Y-97142331D01*
X140829091Y-97007483D01*
X140835500Y-96947873D01*
X140835499Y-96792607D01*
X140855183Y-96725569D01*
X140904245Y-96683056D01*
X140903971Y-96682592D01*
X140906522Y-96681082D01*
X140907987Y-96679814D01*
X140910265Y-96678801D01*
X140910677Y-96678621D01*
X140910690Y-96678618D01*
X140927929Y-96668422D01*
X140945403Y-96659862D01*
X140964027Y-96652488D01*
X140964027Y-96652487D01*
X140964032Y-96652486D01*
X141001749Y-96625082D01*
X141006605Y-96621892D01*
X141046720Y-96598170D01*
X141060889Y-96583999D01*
X141075679Y-96571368D01*
X141091887Y-96559594D01*
X141121599Y-96523676D01*
X141125512Y-96519376D01*
X146053786Y-91591102D01*
X146066048Y-91581280D01*
X146065865Y-91581059D01*
X146071867Y-91576092D01*
X146071877Y-91576086D01*
X146119241Y-91525648D01*
X146140120Y-91504770D01*
X146144373Y-91499286D01*
X146148150Y-91494863D01*
X146180062Y-91460882D01*
X146189714Y-91443323D01*
X146200389Y-91427072D01*
X146212674Y-91411236D01*
X146231186Y-91368452D01*
X146233742Y-91363235D01*
X146256197Y-91322392D01*
X146261180Y-91302980D01*
X146267477Y-91284591D01*
X146275438Y-91266195D01*
X146282729Y-91220153D01*
X146283908Y-91214462D01*
X146295500Y-91169319D01*
X146295500Y-91149282D01*
X146297027Y-91129882D01*
X146300160Y-91110104D01*
X146295775Y-91063715D01*
X146295500Y-91057877D01*
X146295500Y-88900005D01*
X150894859Y-88900005D01*
X150915385Y-89147729D01*
X150915387Y-89147738D01*
X150976412Y-89388717D01*
X151076266Y-89616364D01*
X151176564Y-89769882D01*
X151791050Y-89155395D01*
X151852373Y-89121910D01*
X151922064Y-89126894D01*
X151977998Y-89168765D01*
X151983039Y-89176025D01*
X152018239Y-89230798D01*
X152066037Y-89272215D01*
X152133602Y-89330759D01*
X152131293Y-89333422D01*
X152166006Y-89373499D01*
X152175935Y-89442660D01*
X152146898Y-89506210D01*
X152140882Y-89512669D01*
X151529942Y-90123609D01*
X151576768Y-90160055D01*
X151576770Y-90160056D01*
X151795385Y-90278364D01*
X151795396Y-90278369D01*
X152030506Y-90359083D01*
X152275707Y-90400000D01*
X152524293Y-90400000D01*
X152769493Y-90359083D01*
X153004603Y-90278369D01*
X153004614Y-90278364D01*
X153223228Y-90160057D01*
X153223231Y-90160055D01*
X153270056Y-90123609D01*
X152659116Y-89512669D01*
X152625631Y-89451346D01*
X152630615Y-89381654D01*
X152667641Y-89332193D01*
X152666398Y-89330759D01*
X152709648Y-89293283D01*
X152781761Y-89230798D01*
X152816954Y-89176037D01*
X152869755Y-89130283D01*
X152938914Y-89120339D01*
X153002470Y-89149363D01*
X153008949Y-89155396D01*
X153623434Y-89769882D01*
X153723731Y-89616369D01*
X153823587Y-89388717D01*
X153884612Y-89147738D01*
X153884614Y-89147729D01*
X153905141Y-88900005D01*
X153905141Y-88899994D01*
X153884614Y-88652270D01*
X153884612Y-88652261D01*
X153823587Y-88411282D01*
X153723731Y-88183630D01*
X153623434Y-88030116D01*
X153008949Y-88644602D01*
X152947626Y-88678087D01*
X152877934Y-88673103D01*
X152822001Y-88631231D01*
X152816953Y-88623961D01*
X152781761Y-88569202D01*
X152666398Y-88469241D01*
X152668698Y-88466585D01*
X152633960Y-88426428D01*
X152624074Y-88357261D01*
X152653152Y-88293729D01*
X152659116Y-88287329D01*
X153270056Y-87676389D01*
X153223229Y-87639943D01*
X153004614Y-87521635D01*
X153004603Y-87521630D01*
X152769493Y-87440916D01*
X152524293Y-87400000D01*
X152275707Y-87400000D01*
X152030506Y-87440916D01*
X151795396Y-87521630D01*
X151795390Y-87521632D01*
X151576761Y-87639949D01*
X151529942Y-87676388D01*
X151529942Y-87676390D01*
X152140883Y-88287330D01*
X152174368Y-88348653D01*
X152169384Y-88418344D01*
X152132358Y-88467805D01*
X152133602Y-88469241D01*
X152018238Y-88569202D01*
X151983046Y-88623962D01*
X151930242Y-88669717D01*
X151861083Y-88679660D01*
X151797528Y-88650634D01*
X151791050Y-88644603D01*
X151176564Y-88030116D01*
X151076267Y-88183632D01*
X150976412Y-88411282D01*
X150915387Y-88652261D01*
X150915385Y-88652270D01*
X150894859Y-88899994D01*
X150894859Y-88900005D01*
X146295500Y-88900005D01*
X146295500Y-77091519D01*
X146315185Y-77024480D01*
X146331813Y-77003843D01*
X146407321Y-76928335D01*
X146468640Y-76894853D01*
X146538332Y-76899837D01*
X146582680Y-76928338D01*
X146684811Y-77030469D01*
X146684813Y-77030470D01*
X146684815Y-77030472D01*
X146830394Y-77118478D01*
X146992804Y-77169086D01*
X147063384Y-77175500D01*
X147063387Y-77175500D01*
X147576613Y-77175500D01*
X147576616Y-77175500D01*
X147647196Y-77169086D01*
X147809606Y-77118478D01*
X147955185Y-77030472D01*
X148075472Y-76910185D01*
X148163478Y-76764606D01*
X148214086Y-76602196D01*
X148220500Y-76531616D01*
X148220500Y-75868384D01*
X148214086Y-75797804D01*
X148163478Y-75635394D01*
X148075472Y-75489815D01*
X148075470Y-75489813D01*
X148075469Y-75489811D01*
X147955188Y-75369530D01*
X147809606Y-75281522D01*
X147809605Y-75281521D01*
X147647196Y-75230914D01*
X147647194Y-75230913D01*
X147647192Y-75230913D01*
X147597778Y-75226423D01*
X147576616Y-75224500D01*
X147576613Y-75224500D01*
X147280452Y-75224500D01*
X147213413Y-75204815D01*
X147192771Y-75188181D01*
X146110003Y-74105412D01*
X146100180Y-74093150D01*
X146099959Y-74093334D01*
X146094986Y-74087323D01*
X146076359Y-74069831D01*
X146044564Y-74039973D01*
X146034119Y-74029528D01*
X146023675Y-74019083D01*
X146018186Y-74014825D01*
X146013761Y-74011047D01*
X145979782Y-73979138D01*
X145979780Y-73979136D01*
X145979777Y-73979135D01*
X145962229Y-73969488D01*
X145945963Y-73958804D01*
X145930133Y-73946525D01*
X145887368Y-73928018D01*
X145882122Y-73925448D01*
X145841293Y-73903003D01*
X145841292Y-73903002D01*
X145821893Y-73898022D01*
X145803481Y-73891718D01*
X145785098Y-73883762D01*
X145785092Y-73883760D01*
X145739074Y-73876472D01*
X145733352Y-73875287D01*
X145688221Y-73863700D01*
X145688219Y-73863700D01*
X145668184Y-73863700D01*
X145648786Y-73862173D01*
X145641362Y-73860997D01*
X145629005Y-73859040D01*
X145629004Y-73859040D01*
X145582616Y-73863425D01*
X145576778Y-73863700D01*
X125033638Y-73863700D01*
X125018021Y-73861976D01*
X125017994Y-73862262D01*
X125010232Y-73861527D01*
X124941104Y-73863700D01*
X124911550Y-73863700D01*
X124910829Y-73863790D01*
X124904657Y-73864569D01*
X124898845Y-73865026D01*
X124852273Y-73866490D01*
X124852272Y-73866490D01*
X124833029Y-73872081D01*
X124813979Y-73876025D01*
X124794111Y-73878534D01*
X124750784Y-73895688D01*
X124745258Y-73897579D01*
X124700514Y-73910579D01*
X124700510Y-73910581D01*
X124683266Y-73920779D01*
X124665805Y-73929333D01*
X124647174Y-73936710D01*
X124647162Y-73936717D01*
X124609470Y-73964102D01*
X124604587Y-73967309D01*
X124564480Y-73991029D01*
X124550314Y-74005195D01*
X124535524Y-74017827D01*
X124519314Y-74029604D01*
X124519311Y-74029607D01*
X124489610Y-74065509D01*
X124485677Y-74069831D01*
X117665808Y-80889699D01*
X117653551Y-80899520D01*
X117653734Y-80899741D01*
X117647723Y-80904713D01*
X117600372Y-80955136D01*
X117579489Y-80976019D01*
X117579477Y-80976032D01*
X117575221Y-80981517D01*
X117571437Y-80985947D01*
X117539537Y-81019918D01*
X117539536Y-81019920D01*
X117529884Y-81037476D01*
X117519210Y-81053726D01*
X117506929Y-81069561D01*
X117506924Y-81069568D01*
X117488415Y-81112338D01*
X117485845Y-81117584D01*
X117463403Y-81158406D01*
X117458422Y-81177807D01*
X117452121Y-81196210D01*
X117444162Y-81214602D01*
X117444161Y-81214605D01*
X117436871Y-81260627D01*
X117435687Y-81266346D01*
X117424101Y-81311472D01*
X117424100Y-81311482D01*
X117424100Y-81331516D01*
X117422573Y-81350915D01*
X117419440Y-81370694D01*
X117419439Y-81370697D01*
X117423824Y-81417085D01*
X117424099Y-81422921D01*
X117424099Y-91127165D01*
X117422376Y-91142782D01*
X117422660Y-91142809D01*
X117421926Y-91150568D01*
X117424100Y-91219718D01*
X117424100Y-91249244D01*
X117424101Y-91249265D01*
X117424968Y-91256134D01*
X117425426Y-91261952D01*
X117426890Y-91308530D01*
X117432481Y-91327775D01*
X117436425Y-91346819D01*
X117438936Y-91366693D01*
X117438936Y-91366694D01*
X117456089Y-91410015D01*
X117457981Y-91415542D01*
X117470983Y-91460292D01*
X117470985Y-91460295D01*
X117481179Y-91477534D01*
X117489735Y-91494999D01*
X117497110Y-91513626D01*
X117497113Y-91513630D01*
X117497114Y-91513632D01*
X117509051Y-91530062D01*
X117524502Y-91551328D01*
X117527710Y-91556213D01*
X117551429Y-91596319D01*
X117551435Y-91596327D01*
X117565594Y-91610485D01*
X117578234Y-91625284D01*
X117590004Y-91641485D01*
X117590005Y-91641486D01*
X117590006Y-91641487D01*
X117596703Y-91647027D01*
X117625904Y-91671184D01*
X117630226Y-91675117D01*
X121041400Y-95086252D01*
X125922625Y-99967423D01*
X125956109Y-100028744D01*
X125951125Y-100098436D01*
X125922624Y-100142784D01*
X117857228Y-108208181D01*
X117795905Y-108241666D01*
X117769547Y-108244500D01*
X117752400Y-108244500D01*
X117685361Y-108224815D01*
X117639606Y-108172011D01*
X117628400Y-108120500D01*
X117628400Y-101747551D01*
X117648085Y-101680512D01*
X117664714Y-101659875D01*
X118802772Y-100521817D01*
X118864093Y-100488334D01*
X118930712Y-100492218D01*
X118982229Y-100509904D01*
X119010385Y-100519571D01*
X119255665Y-100560500D01*
X119504335Y-100560500D01*
X119749614Y-100519571D01*
X119984810Y-100438828D01*
X120203509Y-100320474D01*
X120399744Y-100167738D01*
X120568164Y-99984785D01*
X120704173Y-99776607D01*
X120804063Y-99548881D01*
X120865108Y-99307821D01*
X120885643Y-99060000D01*
X120869300Y-98862771D01*
X120865109Y-98812187D01*
X120865107Y-98812175D01*
X120804063Y-98571118D01*
X120704173Y-98343393D01*
X120568166Y-98135217D01*
X120546557Y-98111744D01*
X120399744Y-97952262D01*
X120203509Y-97799526D01*
X120203507Y-97799525D01*
X120203506Y-97799524D01*
X119984811Y-97681172D01*
X119984802Y-97681169D01*
X119749616Y-97600429D01*
X119504335Y-97559500D01*
X119255665Y-97559500D01*
X119010383Y-97600429D01*
X118775197Y-97681169D01*
X118775188Y-97681172D01*
X118556493Y-97799524D01*
X118360257Y-97952261D01*
X118191833Y-98135217D01*
X118055826Y-98343393D01*
X117955936Y-98571118D01*
X117894892Y-98812175D01*
X117894890Y-98812187D01*
X117874357Y-99059994D01*
X117874357Y-99060005D01*
X117894890Y-99307812D01*
X117894892Y-99307824D01*
X117948863Y-99520949D01*
X117946238Y-99590769D01*
X117916338Y-99639070D01*
X116619108Y-100936299D01*
X116606851Y-100946120D01*
X116607034Y-100946341D01*
X116601023Y-100951313D01*
X116553672Y-101001736D01*
X116532789Y-101022619D01*
X116532777Y-101022632D01*
X116528521Y-101028117D01*
X116524737Y-101032547D01*
X116492837Y-101066518D01*
X116492836Y-101066520D01*
X116483184Y-101084076D01*
X116472510Y-101100326D01*
X116460229Y-101116161D01*
X116460224Y-101116168D01*
X116441715Y-101158938D01*
X116439145Y-101164184D01*
X116416703Y-101205006D01*
X116411722Y-101224407D01*
X116405421Y-101242810D01*
X116397462Y-101261202D01*
X116397461Y-101261205D01*
X116390171Y-101307227D01*
X116388987Y-101312946D01*
X116377401Y-101358072D01*
X116377400Y-101358082D01*
X116377400Y-101378116D01*
X116375873Y-101397515D01*
X116372740Y-101417294D01*
X116372740Y-101417295D01*
X109220500Y-101417295D01*
X109220500Y-68704500D01*
X109240185Y-68637461D01*
X109292989Y-68591706D01*
X109344500Y-68580500D01*
X162435500Y-68580500D01*
X162502539Y-68600185D01*
G37*
%TD.AperFunction*%
%TD*%
M02*
